<svg xmlns="http://www.w3.org/2000/svg" viewBox="0 0 1304 265" width="100%" fill="none"><path fill="url(#a)" d="M190.37 189.758c0 44.649-32.765 75.242-82.535 75.242H82.95C32.35 265 0 234.407 0 189.758V4.134C0 1.24 1.244 0 4.147 0h48.941c2.489 0 4.148 1.24 4.148 4.134v185.624c0 12.816 10.368 23.978 25.714 23.978h24.885c14.931 0 24.885-10.335 24.885-23.978V4.134c0-2.894 1.659-4.134 4.148-4.134h49.77c2.903 0 3.732 1.24 3.732 4.134v185.624Z"/><path fill="url(#b)" d="M423.975 256.318c0 2.894-1.244 4.134-4.147 4.134h-42.305c-1.659 0-3.733-1.24-4.562-2.893l-68.019-124.852c-3.318-6.202-7.051-15.297-8.71-20.258l-1.659.414c1.244 14.883 2.489 47.129 2.489 85.577v57.878c0 2.894-1.245 4.134-4.148 4.134h-48.94c-2.489 0-4.148-1.24-4.148-4.134V4.134c0-2.894 1.659-4.134 4.148-4.134h43.134c2.073 0 3.732.827 4.562 2.48L359.689 129.4c3.318 6.615 7.465 16.124 8.71 20.258l1.659-.414c-.83-16.536-2.074-51.677-2.074-86.404V4.134c0-2.894.829-4.134 3.733-4.134h48.111c2.488 0 4.147 1.24 4.147 4.134v252.184Z"/><path fill="url(#c)" d="M533.618 256.318c0 2.894-1.659 4.134-4.562 4.134h-49.355c-2.489 0-4.148-1.24-4.148-4.134V4.134c0-2.894 1.659-4.134 4.148-4.134h49.355c2.488 0 4.562 1.24 4.562 4.134v252.184Z"/><path fill="url(#d)" d="M728 47.543c0 2.894-1.244 3.72-3.733 3.72h-45.622c-3.733 0-4.977 1.654-4.977 4.548v200.507c0 2.894-1.245 4.134-3.733 4.134H620.58c-2.489 0-4.148-1.24-4.148-4.134V55.811c0-2.894-.829-4.547-4.562-4.547h-45.623c-2.488 0-4.147-.827-4.147-3.721V4.134C562.1 1.24 563.759 0 566.247 0h158.02C726.341 0 728 1.24 728 4.134v43.409Z"/><path fill="#fff" d="M792.859 105.423c0 1.511-.648 1.943-2.161 1.943h-52.072c-1.728 0-2.377.864-2.377 2.375v22.241c0 1.511.649 2.159 2.377 2.159h42.781c1.297 0 2.161.648 2.161 2.159v22.672c0 1.512-.864 2.16-2.161 2.16h-42.781c-1.728 0-2.377.647-2.377 2.159v51.175c0 1.511-.864 2.159-2.16 2.159h-25.928c-1.297 0-2.161-.648-2.161-2.159V82.75c0-1.511.864-2.159 2.161-2.159h82.537c1.296 0 2.161.648 2.161 2.16v22.672ZM903.426 179.701c0 23.32-17.286 39.299-43.214 39.299h-12.748c-26.36 0-43.213-15.979-43.213-39.299v-62.402c0-23.32 17.069-39.299 43.213-39.299h12.748c25.928 0 43.214 15.763 43.214 39.299v62.402Zm-30.034 0v-62.402c0-6.91-5.617-12.524-13.18-12.524h-12.748c-7.346 0-13.612 5.83-13.612 12.524v62.402c0 6.694 6.05 12.524 13.612 12.524h12.748c7.779 0 13.18-5.614 13.18-12.524ZM1029.34 213.818c.64 1.727.21 2.807-1.73 2.807h-27.876c-.864 0-1.729-.648-1.945-1.512l-19.23-52.686c-.432-.863-1.08-1.295-1.944-1.295h-17.069c-1.729 0-2.377.647-2.377 2.159v51.175c0 1.511-.864 2.159-2.161 2.159H929.08c-1.296 0-2.16-.648-2.16-2.159V82.75c0-1.511.864-2.159 2.16-2.159h54.017c26.363 0 43.213 15.763 43.213 41.242v2.159c0 12.092-7.78 23.752-16.64 29.582-1.29.864-1.51 1.944-1.08 3.239l20.75 57.005Zm-32.847-90.905v-3.023c0-7.126-5.618-12.524-13.396-12.524h-23.551c-1.729 0-2.377.864-2.377 2.375v23.104c0 1.512.648 2.376 2.377 2.376h23.551c7.562 0 13.396-5.183 13.396-12.308ZM1144.2 104.559c.65 1.296.65 2.807-.86 3.455l-22.47 10.58c-1.51.648-2.81 0-3.46-1.295-4.1-8.637-9.29-12.524-15.34-12.524h-14.91c-7.78 0-13.61 5.614-13.61 12.524v62.402c0 6.91 6.05 12.524 13.61 12.524h12.75c7.78 0 13.18-5.398 13.18-12.524v-9.5c0-1.512-.86-2.16-2.38-2.16h-18.36c-1.3 0-2.16-.647-2.16-2.159v-20.513c0-1.511.86-2.159 2.16-2.159h48.61c1.52 0 2.16.648 2.16 2.159v34.332c0 23.968-16.42 39.299-43.21 39.299h-12.75c-27.22 0-43.21-15.547-43.21-39.299v-62.402c0-23.32 16.42-39.299 43.21-39.299h15.78c12.96 0 22.03 3.455 29.17 9.717 4.75 4.318 8.64 9.932 12.09 16.842ZM1252 214.466c0 1.511-.65 2.159-2.16 2.159h-82.54c-1.29 0-2.16-.648-2.16-2.159V82.75c0-1.511.87-2.159 2.16-2.159h82.54c1.3 0 2.16.648 2.16 2.16v22.672c0 1.511-.65 1.943-2.16 1.943h-52.07c-1.73 0-2.38.864-2.38 2.375v22.241c0 1.511.65 2.159 2.38 2.159h42.78c1.29 0 2.16.648 2.16 2.159v22.672c0 1.512-.87 2.16-2.16 2.16h-42.78c-1.73 0-2.38.647-2.38 2.159v24.184c0 1.511.65 2.159 2.38 2.159h52.07c1.3 0 2.16.648 2.16 2.159v22.673ZM1276.4 92.961c0 3.372 1.09 6.182 3.27 8.43 2.19 2.236 4.98 3.353 8.38 3.353 3.15 0 5.87-1.104 8.14-3.314 2.29-2.222 3.43-5.045 3.43-8.469 0-3.346-1.11-6.13-3.35-8.352-2.23-2.236-4.97-3.353-8.22-3.353-3.37 0-6.16 1.11-8.36 3.333-2.2 2.21-3.29 5-3.29 8.372ZM1288.05 108c-4.55 0-8.36-1.395-11.45-4.186-3.07-2.804-4.6-6.421-4.6-10.853 0-4.367 1.49-7.952 4.48-10.756 3-2.803 6.86-4.205 11.57-4.205 4.52 0 8.31 1.376 11.37 4.128 3.05 2.739 4.58 6.35 4.58 10.833 0 4.483-1.56 8.114-4.67 10.892-3.09 2.765-6.85 4.147-11.28 4.147Zm4.03-17.655c-.45-1.757-1.73-2.636-3.84-2.636-1.33 0-2.39.459-3.17 1.376-.78.918-1.17 2.19-1.17 3.818 0 1.395.41 2.597 1.23 3.605.84.995 1.9 1.492 3.19 1.492 2.22 0 3.47-.93 3.76-2.79h3.78c-.26 1.744-1.06 3.223-2.4 4.437-1.35 1.202-3.06 1.803-5.14 1.803-2.59 0-4.7-.814-6.33-2.442-1.62-1.628-2.43-3.682-2.43-6.163 0-2.571.78-4.645 2.33-6.221 1.54-1.576 3.66-2.364 6.35-2.364 2.13 0 3.85.594 5.15 1.783 1.32 1.175 2.09 2.61 2.31 4.302h-3.62Z"/><defs><linearGradient id="a" x1="0" x2="728" y1="131.656" y2="131.656" gradientUnits="userSpaceOnUse"><stop stop-color="#E6663E"/><stop offset="1" stop-color="#FFE609"/></linearGradient><linearGradient id="b" x1="0" x2="728" y1="131.656" y2="131.656" gradientUnits="userSpaceOnUse"><stop stop-color="#E6663E"/><stop offset="1" stop-color="#FFE609"/></linearGradient><linearGradient id="c" x1="0" x2="728" y1="131.656" y2="131.656" gradientUnits="userSpaceOnUse"><stop stop-color="#E6663E"/><stop offset="1" stop-color="#FFE609"/></linearGradient><linearGradient id="d" x1="0" x2="728" y1="131.656" y2="131.656" gradientUnits="userSpaceOnUse"><stop stop-color="#E6663E"/><stop offset="1" stop-color="#FFE609"/></linearGradient></defs></svg>