<svg xmlns="http://www.w3.org/2000/svg" viewBox="-10 -10 78 78" width="100%" fill="none"><path fill="url(#a)" d="M42.94 42.964C42.94 53.074 35.55 60 24.325 60H18.71C7.297 60 0 53.073 0 42.964V.936C0 .281.28 0 .936 0h11.039c.561 0 .935.28.935.936v42.028c0 2.902 2.34 5.43 5.8 5.43h5.614c3.368 0 5.613-2.341 5.613-5.43V.936c0-.655.374-.936.935-.936H42.1c.655 0 .842.28.842.936v42.028Z"/><path fill="#fff" d="M68.592 24.475c0 .305-.146.392-.487.392H56.359c-.39 0-.536.174-.536.478v4.483c0 .305.146.436.536.436h9.65c.293 0 .487.13.487.435v4.57c0 .305-.194.435-.487.435h-9.65c-.39 0-.536.13-.536.435v10.315c0 .305-.195.436-.487.436h-5.849c-.292 0-.487-.13-.487-.436v-26.55c0-.304.195-.434.487-.434h18.618c.292 0 .487.13.487.435v4.57ZM71.815 22.15c0 .71.215 1.301.645 1.774.433.471.985.706 1.655.706.622 0 1.158-.232 1.607-.697.451-.468.677-1.063.677-1.783 0-.705-.22-1.29-.661-1.759a2.137 2.137 0 0 0-1.623-.706c-.665 0-1.215.234-1.65.702-.433.465-.65 1.053-.65 1.763Zm2.3 3.166c-.897 0-1.65-.294-2.259-.881-.606-.59-.909-1.352-.909-2.285 0-.92.295-1.674.885-2.265.592-.59 1.353-.885 2.283-.885.893 0 1.64.29 2.244.869.603.577.904 1.337.904 2.28 0 .945-.307 1.709-.92 2.294-.612.582-1.354.873-2.228.873Zm.796-3.717c-.09-.37-.343-.555-.76-.555a.757.757 0 0 0-.624.29c-.154.193-.231.46-.231.803 0 .294.081.547.243.76.165.209.375.314.63.314.437 0 .685-.196.742-.588h.746c-.051.367-.21.679-.475.934-.265.253-.603.38-1.014.38-.511 0-.927-.172-1.25-.514-.318-.343-.478-.775-.478-1.298 0-.541.153-.978.459-1.31.305-.331.723-.497 1.253-.497.422 0 .761.125 1.018.375.26.248.411.55.454.906h-.713Z"/><defs><linearGradient id="a" x1="0" x2="164.211" y1="29.809" y2="29.809" gradientUnits="userSpaceOnUse"><stop stop-color="#E6663E"/><stop offset="1" stop-color="#FFE609"/></linearGradient></defs></svg>